<svg width="111" height="58" viewBox="0 0 111 58" fill="none" xmlns="http://www.w3.org/2000/svg">
<path d="M41.6431 34.6976C41.9459 34.9032 42.5448 35.0684 43.0941 35.0722C44.4377 35.0814 45.0936 34.3228 45.0996 33.441C45.1054 32.6015 44.6184 32.1318 43.6576 31.7521C42.8738 31.4415 42.5292 31.1762 42.5328 30.642C42.5355 30.252 42.8344 29.7877 43.6119 29.793C44.1274 29.7966 44.5065 29.9688 44.6917 30.0718L44.8986 29.4712C44.6461 29.3253 44.2245 29.1867 43.6414 29.1827C42.5344 29.1751 41.7947 29.8314 41.7886 30.7217C41.7831 31.5272 42.3544 32.0145 43.2817 32.3516C44.0487 32.6536 44.3508 32.961 44.3471 33.4951C44.3432 34.0717 43.9011 34.4672 43.149 34.462C42.6419 34.4585 42.1614 34.2856 41.8332 34.0799L41.6431 34.6976Z" fill="#878787"/>
<path d="M47.1776 35.0155L47.9213 35.0206L47.956 29.9332L49.6968 29.9452L49.7011 29.3177L45.4843 29.2887L45.4801 29.9161L47.2124 29.9281L47.1776 35.0155Z" fill="#878787"/>
<path d="M50.327 29.322L50.304 32.6882C50.2919 34.4603 51.1662 35.1362 52.3323 35.1442C53.5661 35.1527 54.4921 34.4384 54.5041 32.6832L54.5269 29.3509L53.7833 29.3458L53.7601 32.729C53.7515 33.9923 53.2069 34.5482 52.3618 34.5424C51.6013 34.5372 51.0388 33.9906 51.0476 32.7103L51.0707 29.3271L50.327 29.322Z" fill="#878787"/>
<path d="M55.7679 35.0577C56.1394 35.1026 56.5787 35.1311 57.1026 35.1347C58.2096 35.1423 59.0904 34.8601 59.6264 34.3296C60.1624 33.8075 60.4549 33.0464 60.4613 32.1137C60.4676 31.1895 60.1764 30.5261 59.6726 30.0562C59.1772 29.5865 58.4268 29.3354 57.3705 29.3281C56.7874 29.3241 56.2546 29.3713 55.8063 29.4361L55.7679 35.0577ZM56.5378 29.9838C56.7324 29.9427 57.02 29.9108 57.4002 29.9134C58.9551 29.9241 59.7098 30.7857 59.6922 32.1338C59.6816 33.677 58.8221 34.553 57.2503 34.5421C56.963 34.5402 56.6926 34.5298 56.5069 34.4946L56.5378 29.9838Z" fill="#878787"/>
<path d="M63.1678 35.1256L63.1844 32.6921L65.1166 29.4238L64.2801 29.4181L63.4496 30.9895C63.2269 31.4205 63.03 31.7922 62.8669 32.1642L62.85 32.164C62.6753 31.7643 62.5086 31.4155 62.2919 30.9816L61.4999 29.3989L60.6633 29.3932L62.4407 32.6954L62.4241 35.1204L63.1678 35.1256Z" fill="#878787"/>
<path d="M44.8648 22.9487L45.4582 24.742L46.2404 24.7474L44.3448 19.0459L43.4616 19.0399L41.4966 24.7148L42.2536 24.72L42.8546 22.9349L44.8648 22.9487ZM43.0099 22.362L43.5763 20.7202C43.688 20.3749 43.7829 20.0295 43.8693 19.6925L43.8861 19.6926C43.968 20.0224 44.0498 20.3605 44.1734 20.7327L44.7173 22.3738L43.0099 22.362Z" fill="#878787"/>
<path d="M48.4121 24.7624L48.4287 22.3403L50.3519 19.0873L49.5192 19.0816L48.6926 20.6457C48.471 21.0746 48.275 21.4446 48.1127 21.8148L48.0958 21.8147C47.9219 21.4168 47.7561 21.0697 47.5403 20.6377L46.752 19.0625L45.9193 19.0568L47.6885 22.3436L47.672 24.7573L48.4121 24.7624Z" fill="#878787"/>
<path d="M53.8611 21.5252L51.6574 21.5101L51.6697 19.7125L53.9995 19.7285L54.0038 19.1124L50.9422 19.0914L50.9033 24.7795L54.091 24.8015L54.0952 24.1854L51.6392 24.1685L51.6533 22.1177L53.8569 22.1329L53.8611 21.5252Z" fill="#878787"/>
<path d="M59.7833 21.566L57.5796 21.5508L57.5919 19.7532L59.9217 19.7693L59.9259 19.1532L56.8643 19.1321L56.8254 24.8203L60.0132 24.8422L60.0174 24.2262L57.5614 24.2092L57.5754 22.1585L59.7791 22.1736L59.7833 21.566Z" fill="#878787"/>
<path d="M62.9917 24.8627L63.0082 22.4406L64.9314 19.1876L64.0987 19.1819L63.2721 20.746C63.0505 21.1749 62.8545 21.5449 62.6922 21.9152L62.6754 21.9151C62.5014 21.5172 62.3356 21.17 62.1198 20.7381L61.3315 19.1629L60.4989 19.1571L62.268 22.444L62.2515 24.8576L62.9917 24.8627Z" fill="#878787"/>
<path d="M68.4406 21.6256L66.237 21.6104L66.2492 19.8128L68.5791 19.8289L68.5833 19.2128L65.5217 19.1917L65.4828 24.8799L68.6706 24.9018L68.6748 24.2857L66.2188 24.2688L66.2328 22.2181L68.4365 22.2332L68.4406 21.6256Z" fill="#878787"/>
<path d="M45.4802 57.9977C44.5706 57.9977 43.6812 57.9977 42.7717 57.9977C42.5897 57.9977 42.4078 57.9977 42.2663 57.9166C41.9834 57.7544 41.6802 57.7544 41.377 57.7747C40.6695 57.8355 39.9621 57.7341 39.295 57.5921C38.7695 57.4704 38.2035 57.4704 37.6982 57.2879C37.5163 57.2271 37.2939 57.3082 37.112 57.1865C36.728 56.9228 36.2631 57.004 35.8386 56.9634C35.6365 56.9431 35.4748 56.8823 35.3535 56.7809C35.0907 56.5781 34.7673 56.6389 34.4843 56.5781C34.2014 56.4969 33.9386 56.4361 33.6758 56.2941C33.5546 56.2333 33.3928 56.213 33.2716 56.213C32.7662 56.1724 32.3418 55.8682 31.8364 55.7871C31.3918 55.706 30.9673 55.5031 30.5226 55.422C30.3407 55.4017 30.179 55.28 30.0173 55.1786C29.7545 55.0164 29.3907 55.0772 29.1885 54.8947C28.8247 54.5702 28.279 54.7527 27.9556 54.3471C27.8343 54.2051 27.4704 54.2863 27.2683 54.1443C26.9045 53.8603 26.4194 53.8806 26.0555 53.5967C25.8736 53.4547 25.5704 53.4547 25.3077 53.3533C24.8023 53.1505 24.3374 52.8868 23.8725 52.6029C23.6906 52.4812 23.4683 52.4204 23.2459 52.3595C23.064 52.2987 22.9225 52.1973 22.7608 52.0959C22.7002 52.0553 22.6193 51.9742 22.5385 51.9742C22.2757 51.9945 22.0938 51.8322 21.9523 51.6497C21.8512 51.528 21.7097 51.5888 21.5885 51.5077C21.3257 51.3454 21.0225 51.2238 20.7597 51.0412C20.3757 50.7573 19.9108 50.6153 19.5065 50.3719C18.9608 50.0272 18.415 49.6824 17.8693 49.3579C17.5055 49.1348 17.1618 48.9117 16.8182 48.6886H16.798C16.6161 48.3438 16.232 48.283 15.9086 48.141C15.3225 47.8571 14.8576 47.4109 14.2916 47.0864C13.7661 46.7619 13.1799 46.4982 12.7958 46.0114C12.715 45.91 12.5937 45.9709 12.4926 45.91C12.2501 45.7681 12.0884 45.545 11.9065 45.3624C11.765 45.2002 11.5831 45.0582 11.4213 45.0177C11.1182 44.9162 10.9564 44.6526 10.7139 44.5106C10.5724 44.4295 10.4107 44.3281 10.2692 44.247C9.76388 43.9833 9.40005 43.5168 8.91494 43.2329C8.63196 43.0706 8.42983 42.7867 8.18727 42.5636C8.12663 42.5028 8.066 42.4825 8.00536 42.4622C7.90429 42.4216 7.78301 42.3811 7.80323 42.2391C7.80323 42.1985 7.80323 42.1377 7.74259 42.1174C7.27769 42.016 7.03513 41.6104 6.71173 41.3467C6.44896 41.1236 6.16598 40.9411 5.92342 40.718C5.49895 40.3529 5.01384 40.069 4.67022 39.6025C4.56915 39.4606 4.40745 39.5214 4.30638 39.42C4.08404 39.2375 3.96276 38.9535 3.72021 38.8318C3.43723 38.7101 3.3968 38.3045 3.03297 38.3248C3.01275 38.3248 2.99254 38.3045 2.99254 38.3045C2.91169 37.8989 2.467 37.8178 2.26487 37.5338C2.02232 37.2093 1.71912 36.8645 1.35529 36.7023C0.991457 36.54 1.01167 36.2155 0.80954 35.9924C0.728688 35.9113 0.688262 35.8505 0.566984 35.8302C0.26379 35.7896 -0.0191916 35.5057 0.00102138 35.2826C0.00102138 35.2217 0.00102138 35.1406 0.102086 35.1203C0.385068 35.0798 0.587197 34.8161 0.829753 34.7756C1.27444 34.6944 1.55742 34.3294 2.04253 34.3294C2.28509 34.3294 2.52764 34.1468 2.7702 34.0251C2.83084 33.9846 2.91169 33.944 2.95211 33.9846C3.15424 34.1671 3.19467 33.944 3.27552 33.8629C3.43723 33.7209 3.57872 33.5587 3.84148 33.5789C3.96276 33.5789 4.14468 33.6398 4.16489 33.4167L4.18511 33.3964C4.62979 33.3153 4.89256 32.8691 5.37767 32.8894C5.66065 32.9097 5.78193 32.6054 6.00427 32.5243C6.44896 32.3418 6.89364 32.1795 7.31812 31.9564C7.56067 31.8347 7.90429 31.7942 8.04578 31.49C8.066 31.4291 8.16706 31.3886 8.24791 31.3886C8.65217 31.4088 8.8543 31.0438 9.17771 30.9018C9.46069 30.7801 9.68303 30.5367 9.98623 30.4759C10.3703 30.3745 10.633 30.0703 10.9767 29.9486C11.1788 29.8675 11.3607 29.7458 11.5426 29.6444C12.0277 29.3401 12.5533 29.117 12.9777 28.752C13.099 28.6506 13.2607 28.61 13.382 28.5289C13.6246 28.3869 13.8873 28.2855 14.0895 28.103C14.4129 27.819 14.8171 27.6973 15.1203 27.3931C15.3022 27.2106 15.6256 27.1092 15.8682 26.9469C16.131 26.7644 16.4342 26.6427 16.6565 26.4196C16.7576 26.3182 16.9193 26.2776 17.0608 26.1965C17.3842 26.0343 17.6065 25.7503 17.8895 25.5678C18.1725 25.3853 18.415 25.1419 18.7384 25.0202C18.8597 24.9796 18.8799 24.858 18.981 24.7768C19.4459 24.4726 19.931 24.1684 20.3555 23.8236C20.881 23.418 21.4268 23.0123 21.9321 22.5864C22.3364 22.2214 22.781 21.8969 23.2055 21.5521C23.6906 21.1465 24.1757 20.7408 24.6406 20.3352C25.1662 19.8687 25.7119 19.4023 26.2375 18.9358C26.6013 18.591 26.9449 18.2462 27.2885 17.8812C27.7736 17.3944 28.2588 16.9076 28.7439 16.4209C29.1279 16.0153 29.5524 15.6299 29.9162 15.1634C30.0577 14.9809 30.2194 14.8187 30.4013 14.6564C30.5832 14.4942 30.7045 14.2711 30.8662 14.1088C31.1492 13.8046 31.4524 13.5207 31.7152 13.1962C31.8769 12.9933 32.0588 12.7905 32.1801 12.5471C32.362 12.2024 32.6652 11.9387 32.8875 11.6142C33.2716 11.0463 33.7163 10.5393 34.1003 9.97141C34.2418 9.74831 34.4641 9.60634 34.5652 9.36297C34.5854 9.30212 34.6663 9.30212 34.7067 9.3224C34.8078 9.34269 34.7875 9.42381 34.7875 9.48466C34.7875 9.72803 34.6056 9.93085 34.6056 10.1945C34.6056 10.7218 34.2822 11.1477 34.1407 11.6345C34.0397 12.0198 33.8577 12.4052 33.6758 12.7702C33.4131 13.2773 33.2109 13.8249 32.9684 14.3319C32.7662 14.7578 32.5641 15.1837 32.3013 15.5894C32.1599 15.7922 32.0588 16.0355 31.9577 16.2384C31.7354 16.6846 31.4928 17.1105 31.2098 17.4958C30.846 18.0231 30.5428 18.591 30.1183 19.098C29.8758 19.4023 29.7141 19.747 29.4715 20.031C29.2694 20.2744 29.0673 20.538 28.8651 20.7814C28.7236 20.9639 28.5619 21.1465 28.4407 21.329C28.1981 21.6941 27.9151 21.9983 27.6322 22.3228C27.4098 22.5662 27.2683 22.8907 27.0258 23.134C26.7024 23.4383 26.4396 23.8033 26.1162 24.1075C25.8736 24.3306 25.6513 24.6349 25.4491 24.9188C25.2066 25.2636 24.8428 25.4867 24.5598 25.8112C24.2566 26.1357 23.9332 26.4399 23.6502 26.7644C23.2864 27.17 22.8821 27.5351 22.4778 27.9002C22.2353 28.1233 22.0129 28.3869 21.7502 28.61C21.3863 28.9142 21.0427 29.2184 20.6991 29.5227C20.497 29.7052 20.3353 29.9283 20.0927 30.0703C19.5267 30.4353 19.0618 30.9018 18.597 31.3683C18.3948 31.5508 18.1321 31.6725 17.9097 31.8348C17.5459 32.0984 17.2225 32.4229 16.8788 32.6866C16.3533 33.1125 15.8076 33.4775 15.3022 33.9035C15.0395 34.1063 14.6554 34.228 14.4129 34.4713C14.0086 34.8364 13.5437 35.1406 13.099 35.4448C12.8565 35.6071 12.6139 35.7491 12.3714 35.9316C12.2703 36.0127 12.2097 36.1141 12.1288 36.175C11.9267 36.3372 11.6639 36.3778 11.4416 36.54C11.1182 36.7834 10.7543 36.9659 10.4511 37.2499C10.3298 37.3716 10.1479 37.4324 10.0064 37.5338C9.62239 37.7772 9.17771 37.9394 8.8543 38.2842C8.71281 38.4262 8.71281 38.6696 8.8543 38.7304C9.17771 38.8927 9.40005 39.1563 9.64261 39.3794C9.82452 39.5417 10.0469 39.5822 10.2086 39.7648C10.5118 40.1096 10.9969 40.2312 11.3001 40.5558C11.6235 40.8803 12.0479 41.0425 12.3916 41.3264C12.4724 41.3873 12.5735 41.4481 12.6139 41.5698C12.6341 41.6509 12.6746 41.6915 12.7554 41.6915C12.9575 41.6712 13.1192 41.7929 13.2607 41.9146C13.6448 42.1985 14.049 42.4014 14.3724 42.7664C14.5139 42.9084 14.7363 43.0098 14.9586 43.0909C15.2214 43.1923 15.4639 43.3546 15.6661 43.5371C15.9491 43.7805 16.232 43.963 16.5757 44.0847C16.6969 44.1253 16.8384 44.1658 16.9395 44.2672C17.2831 44.6526 17.8086 44.7134 18.2331 45.0177C18.6778 45.3422 19.1831 45.5653 19.648 45.8492C19.9108 46.0114 20.214 46.0723 20.4363 46.2345C20.7597 46.4779 21.164 46.5793 21.4874 46.8227C21.8108 47.0661 22.1949 47.1472 22.5385 47.35C22.9225 47.5731 23.3874 47.5934 23.731 47.9179C23.8927 48.0599 24.1757 48.0801 24.3981 48.1816C24.9034 48.4249 25.4289 48.6075 25.914 48.8306C26.3385 49.0334 26.8438 49.1145 27.2279 49.4187C27.4907 49.6215 27.8545 49.5607 28.1375 49.7635C28.5215 50.0474 29.0066 50.0677 29.4311 50.2705C29.6737 50.3922 30.0173 50.4531 30.3205 50.5342C30.7449 50.6559 31.1492 50.7776 31.513 51.0209C31.5737 51.0615 31.6545 51.0615 31.7354 51.0818C32.1396 51.1426 32.5439 51.2035 32.9279 51.4266C33.029 51.4874 33.1907 51.4671 33.312 51.4874C33.7365 51.5483 34.1205 51.7105 34.5046 51.8525C34.545 51.8728 34.6056 51.8931 34.646 51.8931C35.1312 51.8119 35.5556 52.0756 36.0205 52.177C36.4854 52.2784 36.9908 52.2987 37.4354 52.4812C37.7184 52.6029 38.062 52.6232 38.3652 52.6637C38.9918 52.7246 39.6184 52.826 40.2248 52.9477C40.7706 53.0694 41.3163 52.9882 41.8419 53.1302C41.8621 53.1302 41.9025 53.1505 41.9227 53.1302C42.5291 53.0897 43.1355 53.2113 43.7621 53.2316C44.7121 53.2722 45.6621 53.2722 46.6121 53.2722C47.2589 53.2722 47.9058 53.2519 48.5324 53.1911C49.1792 53.1302 49.8462 53.1911 50.4526 52.9882C50.7962 52.8666 51.1398 52.9274 51.4834 52.8463C52.1909 52.684 52.9186 52.6637 53.6058 52.4406C54.1111 52.2784 54.6367 52.2987 55.1218 52.0756C55.5665 51.8728 56.092 51.8728 56.5367 51.6497C56.9207 51.4469 57.3452 51.386 57.7495 51.1832C57.9718 51.0615 58.275 51.0412 58.5176 50.9195C59.0633 50.6964 59.6495 50.5342 60.2155 50.2908C60.8016 50.0272 61.3676 49.7432 61.9336 49.439C62.2165 49.297 62.4793 49.1145 62.7825 49.0131C63.1059 48.8914 63.3687 48.6277 63.6921 48.5061C64.2378 48.283 64.6421 47.8368 65.1878 47.6137C65.39 47.5326 65.5517 47.3297 65.7538 47.208C66.0974 46.985 66.4208 46.7416 66.7442 46.5185C67.3708 46.0926 67.9368 45.6058 68.4623 45.0582C68.8666 44.6526 69.2709 44.247 69.6347 43.8211C70.039 43.3749 70.4432 42.949 70.7868 42.4622C71.0698 42.0566 71.3124 41.6104 71.5954 41.225C71.8379 40.8803 72.0805 40.5152 72.2624 40.1298C72.4847 39.6837 72.7071 39.2375 72.9294 38.7913C73.0911 38.4668 73.172 38.0814 73.4145 37.7772C73.4752 37.6961 73.4954 37.6149 73.5358 37.5135C73.7784 36.8443 74.0613 36.175 74.2433 35.4651C74.3645 35.0392 74.506 34.6133 74.5869 34.1671C74.7284 33.3356 74.9103 32.4838 75.0316 31.6522C75.0922 31.206 74.9305 30.7193 75.072 30.3136C75.2741 29.7255 75.2741 29.1373 75.173 28.5897C74.9911 27.6568 75.1326 26.7036 74.9305 25.7706C74.7486 24.9999 74.6677 24.2089 74.4454 23.4383C74.3039 22.9515 74.2635 22.4445 74.0613 21.9983C73.7379 21.3087 73.5358 20.5786 73.2124 19.889C72.9698 19.382 72.7475 18.8344 72.4847 18.3476C72.2422 17.8609 71.9592 17.3741 71.6156 16.9279C71.4336 16.6846 71.2719 16.3803 71.1102 16.1167C70.8677 15.7516 70.5847 15.3865 70.3017 15.0215C69.9985 14.6361 69.6549 14.2711 69.3315 13.8857C69.089 13.5815 68.7251 13.3381 68.4623 13.0339C68.0581 12.5674 67.573 12.1821 67.1283 11.7562C66.724 11.3708 66.2793 11.026 65.8144 10.7218C65.4708 10.4784 65.0868 10.2553 64.7229 10.0323C64.4197 9.84972 64.1368 9.60634 63.8134 9.42381C63.5102 9.24128 63.1868 9.07903 62.8634 8.93706C62.6814 8.85593 62.4995 8.75453 62.3176 8.6734C61.6708 8.30833 60.9633 8.08524 60.2963 7.78102C59.7303 7.51736 59.124 7.43624 58.558 7.17258C58.4771 7.13201 58.4165 7.13201 58.4165 7.01033C58.4165 6.88864 58.5176 6.88864 58.5984 6.88864C59.1037 6.90892 59.6091 6.99004 60.0942 7.07117C60.5389 7.1523 60.9835 7.35511 61.4484 7.33483C61.6304 7.33483 61.7112 7.49708 61.8931 7.51736C62.4995 7.59849 63.0453 7.88243 63.6112 8.06496C64.1368 8.22721 64.6017 8.49087 65.107 8.69368C66.0166 9.03847 66.8453 9.50494 67.674 9.99169C68.3411 10.377 68.9677 10.8638 69.6347 11.2694C70.039 11.5128 70.3421 11.8981 70.7262 12.1618C71.3124 12.5471 71.7773 13.0947 72.2826 13.5815C72.7071 13.9871 73.1113 14.4333 73.4752 14.8998C73.7581 15.2649 74.0411 15.6502 74.3645 15.9747C74.5464 16.1572 74.6273 16.3803 74.789 16.5629C74.9507 16.7657 75.1326 16.9685 75.2539 17.2119C75.4156 17.5364 75.6582 17.8203 75.8401 18.1651C76.0624 18.591 76.3252 19.0169 76.588 19.4225C76.7699 19.7065 76.9316 20.0107 77.0529 20.3352C77.1741 20.6597 77.3358 20.9639 77.4773 21.2884C77.639 21.6332 77.7199 22.0186 77.8816 22.3633C78.0029 22.6473 78.0635 22.9312 78.1848 23.1949C78.3263 23.5397 78.3667 23.925 78.488 24.2901C78.6699 24.9391 78.7103 25.6286 78.8922 26.2574C79.0337 26.7847 78.9731 27.312 79.0944 27.8393C79.3773 29.0968 79.2156 30.3745 79.2156 31.6522C79.2156 32.2404 79.155 32.8083 79.0135 33.3964C78.9933 33.4573 78.9933 33.5181 79.0135 33.5587C79.0742 33.9643 78.872 34.3091 78.8114 34.6944C78.771 34.9784 78.6901 35.2623 78.6497 35.5462C78.5688 36.2155 78.2656 36.8037 78.1241 37.4527C78.0231 37.9597 77.821 38.4262 77.6188 38.8724C77.4369 39.2577 77.4773 39.7445 77.1135 40.0487C76.9922 40.1501 77.0529 40.2921 76.9922 40.4138C76.8305 40.7991 76.5677 41.1033 76.3656 41.4684C76.0826 41.9754 75.7592 42.4622 75.456 42.9692C75.1124 43.5168 74.7284 44.0442 74.3443 44.5512C74.0209 44.9974 73.6571 45.403 73.3135 45.8289C72.889 46.3562 72.4241 46.843 71.939 47.3095C71.5145 47.7151 71.09 48.1004 70.6656 48.5061C70.3826 48.79 70.0592 49.0334 69.7358 49.2565C69.3719 49.5201 69.0485 49.8243 68.7049 50.088C68.4421 50.2908 68.1187 50.4531 67.8762 50.6762C67.6134 50.9195 67.29 51.021 67.0272 51.2643C66.7847 51.5077 66.4613 51.67 66.1581 51.8525C65.673 52.1567 65.1878 52.4812 64.6825 52.7652C64.1368 53.0897 63.591 53.4547 62.9846 53.6981C62.6208 53.8603 62.2772 54.0429 61.9133 54.2051C61.307 54.4688 60.7208 54.773 60.1144 55.0367C59.8314 55.1584 59.5484 55.3206 59.225 55.3612C59.0633 55.3815 58.8814 55.4626 58.7601 55.5843C58.5782 55.7262 58.3559 55.7465 58.1335 55.8074C57.891 55.8682 57.6888 55.9696 57.4867 56.0913C57.4463 56.1116 57.3856 56.1319 57.325 56.1319C56.9612 56.1521 56.6378 56.2941 56.3346 56.4564C56.1931 56.5375 56.0314 56.4564 55.8899 56.5172C55.5665 56.6795 55.2026 56.6795 54.8994 56.862C54.8186 56.9026 54.6973 56.8823 54.5963 56.9026C53.9899 56.9431 53.4239 57.2676 52.8175 57.2879C52.6962 57.2879 52.5952 57.3285 52.4739 57.3285C52.2313 57.3487 51.9686 57.3082 51.7462 57.4907C51.6856 57.5313 51.5845 57.5516 51.5037 57.5718C50.6951 57.7341 49.8866 57.7138 49.0781 57.7138C48.977 57.7138 48.876 57.6733 48.7951 57.7544C48.5121 57.9978 48.1887 57.9369 47.8653 57.9369C47.0972 58.018 46.2887 57.9977 45.4802 57.9977Z" fill="#878787"/>
<path d="M52.8781 50.3922C52.0898 50.3922 51.4834 50.3922 50.8771 50.3922C50.493 50.3922 50.1494 50.3517 49.7856 50.2097C49.5632 50.1286 49.26 50.23 49.0377 50.1691C48.593 50.0474 48.0877 50.088 47.6834 49.8446C47.643 49.8244 47.5621 49.8041 47.5217 49.8243C47.1579 49.8852 46.8345 49.7027 46.5111 49.581C46.0866 49.439 45.6621 49.3376 45.2579 49.1753C45.0355 49.0739 44.7121 49.1551 44.5302 48.8508C44.4695 48.7697 44.1664 48.7089 43.9844 48.6886C43.7015 48.6683 43.4993 48.4858 43.277 48.3844C42.9536 48.2424 42.6302 48.0396 42.3068 47.8773C42.1046 47.7759 41.8823 47.6745 41.7206 47.5528C41.4578 47.35 41.1142 47.3297 40.8716 47.1066C40.8312 47.0661 40.7504 47.0052 40.6897 46.9647C40.1844 46.6604 39.6993 46.3157 39.2344 45.9506C38.8503 45.6667 38.4663 45.3827 38.1227 45.0379C37.8397 44.754 37.4961 44.5106 37.1929 44.2267C36.829 43.8819 36.4248 43.5574 36.1418 43.1721C35.778 42.6853 35.3131 42.2594 34.9492 41.7726C34.7269 41.4684 34.5046 41.1642 34.3024 40.8397C33.979 40.3124 33.6556 39.7851 33.312 39.2577C33.029 38.8116 32.8067 38.3451 32.5843 37.8786C32.4226 37.5338 32.1801 37.2093 32.0992 36.8037C32.0588 36.6212 31.9173 36.3981 31.8162 36.1953C31.7354 36.033 31.695 35.8302 31.6141 35.6477C31.4524 35.2623 31.3715 34.8364 31.2098 34.4511C31.0279 33.9846 31.0279 33.4775 30.846 33.0111C30.7652 32.8083 30.7247 32.6054 30.7652 32.4026C30.8056 32.1998 30.6439 32.0781 30.6035 31.8956C30.3609 31.0032 30.5024 30.0703 30.3407 29.1779C30.2194 28.5289 30.1588 27.8596 30.2396 27.2512C30.3407 26.4805 30.3003 25.7098 30.4013 24.9391C30.462 24.5335 30.5226 24.1075 30.6237 23.7019C30.7854 23.134 30.8662 22.5459 30.9875 21.978C31.0481 21.7346 31.1492 21.471 31.2503 21.2073C31.3109 21.0653 31.2907 20.9031 31.3513 20.8017C31.513 20.5583 31.4322 20.2338 31.6343 20.031C31.695 19.9904 31.7152 19.9296 31.7152 19.8687C31.7556 19.5645 31.8769 19.3211 32.0386 19.0575C32.1599 18.8547 32.2003 18.591 32.3216 18.3679C32.4226 18.1448 32.5237 17.9217 32.645 17.6986C32.746 17.5161 32.8067 17.3133 32.9279 17.151C33.1099 16.8874 33.1503 16.5426 33.4131 16.3195C33.5141 16.2181 33.595 15.995 33.6556 15.8125C33.7163 15.6502 33.8375 15.5285 33.9588 15.4068C34.0801 15.3054 34.2216 15.204 34.2418 15.0012C34.262 14.8389 34.4641 14.7781 34.5248 14.6158C34.6865 14.2305 35.0301 13.9871 35.2726 13.6626C35.778 12.9325 36.4046 12.3443 37.0312 11.7359C37.4759 11.2897 37.9003 10.8029 38.3854 10.4379C38.6684 10.2351 38.8908 9.91056 39.1737 9.78888C39.6386 9.58606 40.0227 9.24128 40.3663 8.93706C40.7908 8.57199 41.2759 8.26777 41.6802 7.88243C41.9025 7.65933 42.1653 7.39567 42.4483 7.27398C42.8727 7.09145 43.1759 6.76695 43.6004 6.6047C43.7419 6.54385 43.9238 6.48301 44.0249 6.30048C44.0855 6.17879 44.2674 6.19907 44.4089 6.11794C44.6919 5.91513 45.0355 5.7326 45.3387 5.55007C45.5206 5.44866 45.743 5.32697 45.9451 5.24584C46.2887 5.08359 46.6525 4.96191 46.9962 4.73881C47.2994 4.536 47.6632 4.41431 48.0068 4.27234C48.3707 4.13037 48.7547 4.02896 49.0579 3.7653C49.0781 3.74502 49.1185 3.74502 49.1387 3.74502C49.5228 3.80587 49.7653 3.50164 50.0888 3.40024C50.3717 3.31911 50.6345 3.17714 50.9175 3.13658C51.1803 3.09602 51.3824 2.91348 51.6249 2.83236C51.6654 2.83236 51.6856 2.75123 51.726 2.75123C52.0898 2.83236 52.4335 2.64983 52.7164 2.50786C53.0601 2.32532 53.5047 2.48758 53.7877 2.16307C53.8079 2.14279 53.8484 2.14279 53.8686 2.14279C54.3537 2.06167 54.8388 1.9197 55.3037 1.81829C55.6878 1.71688 56.0718 1.63576 56.4356 1.51407C56.7186 1.41266 57.042 1.49379 57.2846 1.3721C57.608 1.20985 57.9718 1.31125 58.2346 1.149C58.7399 0.865064 59.3059 1.12872 59.8112 0.804219C60.0942 0.621687 60.5389 0.763657 60.9229 0.641968C61.2463 0.540561 61.6101 0.621687 61.9336 0.479717C62.257 0.337747 62.641 0.459436 62.9644 0.37831C63.7325 0.175496 64.5208 0.337747 65.2687 0.0943706C65.491 0.0335265 65.7336 0.0132449 65.9762 0.0132449C66.9868 0.0132449 67.9974 -0.0273178 69.0081 0.0335264C69.756 0.0740892 70.5039 -0.00703633 71.2517 0.0943706C72.2826 0.23634 73.3337 0.0943706 74.3241 0.276903C75.1528 0.418873 76.022 0.23634 76.8103 0.601406C76.8507 0.621687 76.8912 0.621687 76.9316 0.601406C77.5986 0.499999 78.2252 0.723094 78.872 0.763657C79.4582 0.804219 80.0444 1.02731 80.6508 0.966471C81.0146 1.25041 81.4795 1.0476 81.8635 1.20985C82.4901 1.45322 83.1572 1.41266 83.804 1.57491C84.3699 1.71688 84.9561 1.77773 85.5423 1.87913C85.7444 1.9197 85.9668 1.9197 86.1487 1.98054C86.6338 2.14279 87.1796 2.04138 87.6445 2.30504C87.6849 2.32532 87.7455 2.34561 87.8062 2.34561C88.3317 2.26448 88.8168 2.46729 89.2817 2.60926C89.5849 2.69039 89.8881 2.64983 90.1509 2.75123C90.4945 2.91348 90.8987 2.83236 91.2019 3.07574C91.2424 3.1163 91.3232 3.1163 91.4041 3.09602C91.7679 3.03517 92.0913 3.21771 92.4551 3.27855L92.4753 3.29883C93.1424 3.35967 93.769 3.60305 94.4158 3.74502C94.7796 3.82615 95.1839 3.84643 95.5275 4.02896C95.5882 4.06952 95.6488 4.08981 95.7296 4.08981C96.1339 4.11009 96.4977 4.21149 96.8211 4.43459C96.8414 4.45487 96.8616 4.45487 96.8818 4.45487C97.286 4.37374 97.6499 4.55628 97.9733 4.71853C98.3169 4.88078 98.7009 4.77937 99.0446 5.00247C99.2467 5.12416 99.5499 5.20528 99.8127 5.24584C100.156 5.30669 100.48 5.5095 100.823 5.57035C101.147 5.61091 101.389 5.85429 101.753 5.85429C102.016 5.85429 102.299 6.03682 102.562 6.15851C102.764 6.23963 102.966 6.34104 103.168 6.40188C103.613 6.50329 104.057 6.68582 104.482 6.86836C104.704 6.96976 105.028 6.88864 105.21 7.19286C105.25 7.2537 105.493 7.31455 105.654 7.37539C106.099 7.51736 106.523 7.74046 106.928 7.96355C107.15 8.06496 107.393 8.18665 107.635 8.24749C107.857 8.30834 108.08 8.36918 108.282 8.55171C108.423 8.6734 108.646 8.73424 108.828 8.83565C109.191 9.01818 109.555 9.18044 109.879 9.40353C110.101 9.56578 110.323 9.70775 110.606 9.78888C110.748 9.82944 110.809 10.012 110.97 10.0728C111.011 10.0931 111.031 10.2756 110.889 10.2756C110.748 10.2756 110.566 10.377 110.465 10.1742C110.445 10.1539 110.384 10.1337 110.344 10.1337C109.798 9.99169 109.212 9.87 108.686 9.66719C108.363 9.52522 107.958 9.62663 107.676 9.34269C107.655 9.3224 107.595 9.30212 107.574 9.3224C107.211 9.40353 106.887 9.20072 106.584 9.07903C106.18 8.93706 105.755 8.87621 105.351 8.73424C105.007 8.61256 104.664 8.59227 104.32 8.51115C104.017 8.43002 103.694 8.40974 103.431 8.28805C103.168 8.16637 102.824 8.28805 102.602 8.0244C102.582 8.00411 102.541 8.02439 102.521 8.00411C102.036 7.90271 101.531 7.84186 101.066 7.69989C100.783 7.61877 100.459 7.61877 100.197 7.51736C99.8531 7.39567 99.4488 7.45652 99.1456 7.19286C99.1052 7.1523 99.0243 7.1523 98.9839 7.17258C98.6201 7.23342 98.3169 7.03061 97.9733 6.99004C97.5892 6.94948 97.2456 6.72639 96.8414 6.78723C96.7201 6.80751 96.619 6.76695 96.5179 6.70611C96.3562 6.6047 96.1743 6.56414 95.9722 6.56414C95.7701 6.54385 95.5881 6.6047 95.3658 6.44245C95.2041 6.32076 94.9009 6.42217 94.6583 6.36132C94.2945 6.25991 93.9105 6.23963 93.5668 6.15851C93.1424 6.0571 92.6775 6.11794 92.2934 5.93541C91.97 5.77316 91.6668 5.85429 91.3434 5.81372C91.0402 5.77316 90.7572 5.63119 90.4541 5.63119C90.3934 5.63119 90.2924 5.61091 90.2317 5.59063C89.6657 5.34725 89.0391 5.57035 88.4732 5.30669C88.2913 5.22556 88.0487 5.185 87.8264 5.20528C87.2806 5.26613 86.7753 5.00247 86.2295 5.02275C85.6434 5.04303 85.0774 4.8605 84.4912 4.79965C83.804 4.71853 83.137 4.71853 82.4497 4.61712C81.9242 4.55628 81.4189 4.43459 80.8933 4.43459C79.721 4.43459 78.5688 4.27234 77.3965 4.27234C76.9518 4.27234 76.4667 4.29262 76.022 4.21149C74.223 3.90727 72.4039 4.11009 70.6049 4.08981C69.7358 4.06952 68.8464 4.23177 67.9772 4.29262C67.5123 4.3129 67.0272 4.19121 66.5825 4.3129C65.774 4.536 64.9453 4.29262 64.157 4.57656C63.9144 4.65768 63.6314 4.65768 63.4091 4.65768C62.8229 4.6374 62.2974 4.8605 61.7314 4.84022C61.408 4.81994 61.125 5.04303 60.8016 5.02275C60.7814 5.02275 60.741 5.04303 60.7208 5.04303C60.175 5.02275 59.6697 5.32697 59.124 5.28641C58.841 5.61091 58.3963 5.30669 58.0729 5.57035C57.9516 5.67175 57.709 5.59063 57.5271 5.67175C56.9814 5.87457 56.4154 5.93541 55.8495 6.07738C55.5058 6.17879 55.142 6.25991 54.7984 6.36132C54.5154 6.44245 54.192 6.52357 53.9292 6.62498C53.5047 6.78723 53.0196 6.82779 52.6154 7.05089C52.2313 7.2537 51.7866 7.29427 51.443 7.55792C51.3824 7.59849 51.2813 7.55792 51.1803 7.57821C51.0994 7.57821 50.9983 7.55792 50.9781 7.67961C50.9579 7.74046 50.8973 7.78102 50.8366 7.8013C50.3919 7.90271 50.0079 8.16637 49.5834 8.28805C49.2398 8.38946 48.9568 8.61256 48.6334 8.75453C48.2898 8.87621 47.9462 9.09931 47.6228 9.26156C47.4409 9.36297 47.2387 9.50494 47.0164 9.58606C46.7536 9.66719 46.5313 9.87 46.2887 10.012C46.0057 10.1742 45.7632 10.3973 45.46 10.5393C45.2781 10.6407 45.0759 10.7218 44.9142 10.9044C44.6919 11.1477 44.3685 11.2491 44.1057 11.452C43.8025 11.675 43.4993 11.9387 43.1759 12.1618C42.7514 12.466 42.3876 12.8311 42.0036 13.1962C41.7408 13.4598 41.4174 13.7032 41.1546 13.9871C40.6897 14.4942 40.1642 14.9606 39.7195 15.4879C39.2748 16.0355 38.7695 16.5831 38.4057 17.2119C38.1429 17.6581 37.7993 18.0434 37.5567 18.4693C37.4152 18.7533 37.2535 19.0575 37.112 19.3211C36.9301 19.6659 36.9301 20.1121 36.5663 20.3555C36.5461 20.3758 36.5461 20.4163 36.5461 20.4366C36.5663 20.8017 36.3642 21.0856 36.1822 21.3696C36.162 21.4101 36.162 21.471 36.162 21.5318C36.2024 22.0186 35.9599 22.4445 35.8993 22.8907C35.8588 23.134 35.8386 23.3774 35.7982 23.6208C35.7375 23.9859 35.6971 24.3712 35.6163 24.7363C35.5961 24.858 35.5758 24.9594 35.5758 25.081C35.5758 26.3385 35.5758 27.5757 35.5758 28.8331C35.5758 29.259 35.6971 29.6646 35.778 30.0703C35.7982 30.1108 35.7982 30.1717 35.7982 30.2122C35.7173 30.6382 35.8993 31.0438 35.9801 31.4494C36.0407 31.8348 36.0812 32.2607 36.2227 32.5852C36.3642 32.8894 36.3642 33.2342 36.5259 33.5587C36.6269 33.7818 36.7078 34.086 36.8088 34.3294C36.9907 34.7756 37.0716 35.242 37.2737 35.6882C37.4152 36.0127 37.5769 36.3778 37.7386 36.7023C37.9003 37.0065 38.0014 37.3716 38.2844 37.6352C38.3854 37.7366 38.3248 37.8989 38.4259 38.0409C38.6482 38.3654 38.8908 38.6899 39.0525 39.0346C39.2748 39.4606 39.578 39.8256 39.8408 40.211C40.1035 40.6166 40.4674 40.9614 40.7504 41.3467C41.2355 42.0566 41.9227 42.5839 42.4685 43.2329C42.7717 43.5777 43.0749 43.963 43.4387 44.1658C43.8834 44.4295 44.1866 44.8554 44.6515 45.1191C45.0355 45.3422 45.4196 45.6261 45.7632 45.91C45.9855 46.0926 46.2685 46.2143 46.5313 46.3765C47.0568 46.6807 47.6026 46.9444 48.1281 47.2283C48.4313 47.3906 48.7345 47.5326 49.0377 47.6948C49.2802 47.8165 49.543 47.9382 49.826 47.999C50.0483 48.0396 50.2909 48.1613 50.5132 48.2627C50.8366 48.4047 51.16 48.5466 51.5037 48.6075C51.8675 48.6886 52.2313 48.8306 52.6154 48.9117C53.4037 49.0739 54.2122 49.2159 55.0005 49.3984C55.6069 49.5201 56.2133 49.3984 56.8197 49.581C56.9005 49.6013 56.9612 49.6013 57.042 49.6013C57.5473 49.6013 58.0527 49.6013 58.558 49.6013C58.6793 49.6013 58.9218 49.4998 58.9218 49.6824C58.9218 49.8243 58.6995 50.0272 58.5176 50.0069C58.0122 49.9663 57.5878 50.2097 57.1027 50.2908C56.7186 50.3517 56.3144 50.2908 55.9505 50.4125C54.859 50.5342 53.7675 50.3111 52.8781 50.3922Z" fill="#878787"/>
</svg>
