<svg width="21" height="20" viewBox="0 0 21 20" fill="none" xmlns="http://www.w3.org/2000/svg">
<path d="M12.4949 19.8937C17.3062 19.1699 20.9949 15.0184 20.9949 10.0054C20.9949 4.48252 16.5177 0.00537109 10.9949 0.00537109C5.47202 0.00537109 0.994873 4.48252 0.994873 10.0054C0.994873 15.0184 4.68361 19.1699 9.49487 19.8937L9.49487 13.0054H7.99487C7.16644 13.0054 6.49487 12.3338 6.49487 11.5054C6.49487 10.677 7.16644 10.0054 7.99487 10.0054H9.49487V8.00537C9.49487 6.07237 11.0619 4.50537 12.9949 4.50537H13.4949C14.3233 4.50537 14.9949 5.17694 14.9949 6.00537C14.9949 6.8338 14.3233 7.50537 13.4949 7.50537H12.9949C12.7188 7.50537 12.4949 7.72923 12.4949 8.00537V10.0054H13.9949C14.8233 10.0054 15.4949 10.677 15.4949 11.5054C15.4949 12.3338 14.8233 13.0054 13.9949 13.0054H12.4949L12.4949 19.8937Z" fill="white"/>
</svg>
