<svg width="19" height="19" viewBox="0 0 19 19" fill="none" xmlns="http://www.w3.org/2000/svg">
<path d="M13.9949 0.00537109C16.7563 0.00537109 18.9949 2.24395 18.9949 5.00537V13.0054C18.9949 15.7668 16.7563 18.0054 13.9949 18.0054H5.99487C3.23345 18.0054 0.994873 15.7668 0.994873 13.0054L0.994873 5.00537C0.994873 2.24395 3.23345 0.00537109 5.99487 0.00537109L13.9949 0.00537109ZM9.99487 5.00537C7.78573 5.00537 5.99487 6.79623 5.99487 9.00537C5.99487 11.2145 7.78573 13.0054 9.99487 13.0054C12.204 13.0054 13.9949 11.2145 13.9949 9.00537C13.9949 6.79623 12.204 5.00537 9.99487 5.00537ZM9.99487 7.00537C11.0995 7.00537 11.9949 7.90077 11.9949 9.00537C11.9949 10.11 11.0995 11.0054 9.99487 11.0054C8.89027 11.0054 7.99487 10.11 7.99487 9.00537C7.99487 7.90077 8.89027 7.00537 9.99487 7.00537ZM14.4949 3.50537C13.9426 3.50537 13.4949 3.95309 13.4949 4.50537C13.4949 5.05765 13.9426 5.50537 14.4949 5.50537C15.0472 5.50537 15.4949 5.05765 15.4949 4.50537C15.4949 3.95309 15.0472 3.50537 14.4949 3.50537Z" fill="white"/>
</svg>
