<?xml version="1.0" encoding="utf-8"?>
<!-- Generator: Adobe Illustrator 24.0.0, SVG Export Plug-In . SVG Version: 6.00 Build 0)  -->
<svg version="1.1" xmlns="http://www.w3.org/2000/svg" xmlns:xlink="http://www.w3.org/1999/xlink" x="0px" y="0px"
	 viewBox="0 0 508.7 117.7" style="enable-background:new 0 0 508.7 117.7;" xml:space="preserve">
<style type="text/css">
	.st0{fill:url(#SVGID_1_);}
	.st1{fill:url(#SVGID_2_);}
	.st2{fill:url(#SVGID_3_);}
	.st3{fill:url(#SVGID_4_);}
	.st4{fill:url(#SVGID_5_);}
	.st5{fill:url(#SVGID_6_);}
	.st6{fill:url(#SVGID_7_);}
	.st7{fill:url(#SVGID_8_);}
	.st8{fill:url(#SVGID_9_);}
	.st9{fill:url(#SVGID_10_);}
	.st10{fill:url(#SVGID_11_);}
	.st11{fill:url(#SVGID_12_);}
	.st12{fill:url(#SVGID_13_);}
	.st13{fill:url(#SVGID_14_);}
	.st14{fill:url(#SVGID_15_);}
</style>
<g id="Layer_3">
	<linearGradient id="SVGID_1_" gradientUnits="userSpaceOnUse" x1="163.8" y1="110.15" x2="163.8" y2="7.55">
		<stop  offset="1.843576e-02" style="stop-color:#9A5745"/>
		<stop  offset="0.5173" style="stop-color:#ECCA0A"/>
		<stop  offset="1" style="stop-color:#955947"/>
	</linearGradient>
	<polygon class="st0" points="163.8,8.8 163.8,7.6 162.3,59.1 163.8,110.1 163.8,110 165.3,59.1 	"/>
</g>
<g id="Layer_4">
	<linearGradient id="SVGID_2_" gradientUnits="userSpaceOnUse" x1="122.9979" y1="92.45" x2="122.9979" y2="27.05">
		<stop  offset="0" style="stop-color:#624C9F"/>
		<stop  offset="0.6513" style="stop-color:#5F6DB4"/>
		<stop  offset="1" style="stop-color:#5D80C0"/>
	</linearGradient>
	<path class="st1" d="M152.6,50c-0.1-0.1-0.2-0.1-0.2-0.2c-0.1,0.1-0.3,0.2-0.4,0.3c-7.8,6.7-15.5,13.5-23.3,20.2
		c-1.2,1-1.4,1-1.9-0.4c-2.4-5.8-4.8-11.5-7.3-17.3c-2.1-5.1-4.2-10.1-6.4-15.2c-1.3-3.1-2.6-6.2-3.9-9.3c-0.3-0.8-0.7-1-1.5-1
		c-4.3,0-8.6,0-12.9,0c-1.4,0-1.5,0.2-1.1,1.3c0,0.1,0.1,0.2,0.1,0.4c2.6,6,5.1,11.9,7.7,17.9c2,4.6,3.9,9.2,5.9,13.7
		c1.5,3.5,3.2,6.9,4.7,10.4c1.8,4.1,3.4,8.3,5.2,12.5c1.2,2.8,2.4,5.6,3.6,8.4c0.1,0.3,0.4,0.5,0.6,0.8
		C131.8,78.4,142.2,64.2,152.6,50z"/>
</g>
<g id="Layer_5">
	<linearGradient id="SVGID_3_" gradientUnits="userSpaceOnUse" x1="84.4722" y1="92.65" x2="84.4722" y2="27.45">
		<stop  offset="1.331947e-07" style="stop-color:#097A9A"/>
		<stop  offset="0.5017" style="stop-color:#2A9789"/>
		<stop  offset="1" style="stop-color:#4EB875"/>
	</linearGradient>
	<path class="st2" d="M90.9,92.7c0.2-0.3,0.4-0.4,0.5-0.6c1.8-2.4,3.5-4.7,5.3-7.1c2.9-3.9,5.7-7.9,8.6-11.8
		c0.4-0.6,0.5-1.1,0.2-1.7c-0.1-0.2-0.2-0.4-0.3-0.6c-0.5-1.2-1-2.4-1.5-3.6c-0.3-0.7-0.6-0.8-1.2-0.3c-0.5,0.4-0.9,0.8-1.3,1.2
		c-1.1,0.9-2.2,1.9-3.3,2.8c-0.5,0.4-0.8,0.4-1.1-0.2c-0.1-0.1-0.1-0.2-0.1-0.3c-2-4.7-3.9-9.4-5.9-14.1c-3.9-9.3-7.9-18.7-11.8-28
		c-0.3-0.8-0.6-0.9-1.5-0.9c-4.4,0-8.8,0-13.2,0c-0.9,0-1.1,0.2-0.8,1c1,2.4,2.1,4.7,3.1,7.1c3.6,8.4,7.2,16.7,10.7,25.1
		c2.9,6.9,5.8,13.9,8.8,20.8c1.5,3.5,3,7,4.5,10.5C90.5,92.1,90.7,92.4,90.9,92.7z"/>
</g>
<g id="Layer_6">
	<linearGradient id="SVGID_4_" gradientUnits="userSpaceOnUse" x1="42.4429" y1="92.45" x2="42.4429" y2="30.7118">
		<stop  offset="0" style="stop-color:#832976"/>
		<stop  offset="0.663" style="stop-color:#CD5C9A"/>
		<stop  offset="1" style="stop-color:#EE72AA"/>
	</linearGradient>
	<path class="st3" d="M8.4,90.9C8.5,91,8.5,91,8.6,91.1C8.8,91,9,90.9,9.2,90.7c3.5-3,7.1-6,10.5-9c7.6-6.7,15.2-13.5,22.8-20.3
		c2.3-2.1,4.6-4.1,6.9-6.2c1-0.9,1.4-0.8,1.9,0.3c1.8,4,3.7,8.1,5.5,12.1c3.7,8.1,7.3,16.3,11,24.4c0.1,0.2,0.3,0.5,0.5,0.5
		s0.5-0.2,0.7-0.4c0.7-0.9,1.4-1.8,2.1-2.7c1.6-2.1,3.2-4.2,4.8-6.2c0.8-1.1,0.9-2.1,0.3-3.4c-1.1-2.2-2-4.4-3-6.6
		c-2.5-6.1-5-12.2-7.5-18.2c-2.7-6.4-5.4-12.9-8.1-19.3c-0.6-1.5-1.3-2.9-1.9-4.4c-0.3-0.7-0.6-0.7-1.1-0.1
		c-0.3,0.3-0.5,0.6-0.8,0.9c-5.5,7.1-11,14.2-16.6,21.3c-3.3,4.2-6.6,8.3-9.8,12.4c-4.4,5.7-8.8,11.4-13.2,17.1
		c-1.7,2.2-3.4,4.4-5.1,6.6C8.9,89.9,8.7,90.5,8.4,90.9z"/>
</g>
<g id="Layer_2">
	<g>
		<linearGradient id="SVGID_5_" gradientUnits="userSpaceOnUse" x1="199.25" y1="78.45" x2="199.25" y2="39.95">
			<stop  offset="0" style="stop-color:#624C9F"/>
			<stop  offset="0.6513" style="stop-color:#5F6DB4"/>
			<stop  offset="1" style="stop-color:#5D80C0"/>
		</linearGradient>
		<path class="st4" d="M208.2,66.9c-6.1,0-12.3,0-18.4,0.1c-1.9,3.8-3.8,7.7-5.6,11.5c-0.3,0-0.5,0-0.8,0c4.7-12.8,9.3-25.7,14-38.5
			h3.4c4.8,12.8,9.6,25.6,14.4,38.5c-0.3,0-0.6,0-1,0c-1.1-1.8-2.1-3.8-3.2-5.8C210.1,70.7,209.1,68.8,208.2,66.9z M190.6,64.9h16.9
			l-8.5-21L190.6,64.9z"/>
	</g>
	<linearGradient id="SVGID_6_" gradientUnits="userSpaceOnUse" x1="340.05" y1="78.45" x2="340.05" y2="39.85">
		<stop  offset="0" style="stop-color:#624C9F"/>
		<stop  offset="0.6513" style="stop-color:#5F6DB4"/>
		<stop  offset="1" style="stop-color:#5D80C0"/>
	</linearGradient>
	<path class="st5" d="M353.8,40.2L353.6,66c0,2.6-0.6,4.8-1.8,6.7c-1.1,1.9-2.8,3.3-4.8,4.3c-2.1,1-4.5,1.5-7.1,1.5
		c-4.1,0-7.4-1.1-9.8-3.3c-2.5-2.2-3.7-5.2-3.8-9.1l0.1-26.1h3.3l-0.1,25.6c0,1,0.2,4.4,2.8,7.4c0.6,0.7,3.4,3.9,7.7,3.8
		c4.2-0.1,6.8-3,7.5-3.8c2.6-3,2.8-6.4,2.8-7.4l0.1-25.7L353.8,40.2z"/>
	<linearGradient id="SVGID_7_" gradientUnits="userSpaceOnUse" x1="374.55" y1="78.15" x2="374.55" y2="40.15">
		<stop  offset="0" style="stop-color:#624C9F"/>
		<stop  offset="0.6513" style="stop-color:#5F6DB4"/>
		<stop  offset="1" style="stop-color:#5D80C0"/>
	</linearGradient>
	<path class="st6" d="M388.9,78.2c-0.6,0-1.3,0-1.9,0c-7.9-10.8-15.7-21.7-23.6-32.5c-0.3,10.8-0.7,21.6-1.1,32.4
		c-0.5,0-0.9,0-1.4,0c-0.3-12.6-0.6-25.3-0.9-37.9h3.3l22.3,32.5l0.1-32.5h3.3L388.9,78.2z"/>
	<linearGradient id="SVGID_8_" gradientUnits="userSpaceOnUse" x1="408.5" y1="78.05" x2="408.5" y2="40.15">
		<stop  offset="0" style="stop-color:#624C9F"/>
		<stop  offset="0.6513" style="stop-color:#5F6DB4"/>
		<stop  offset="1" style="stop-color:#5D80C0"/>
	</linearGradient>
	<path class="st7" d="M418,60l-18.2-0.1c0,5.4,0.1,10.7,0.1,16.1c6.8,0.3,13.7,0.5,20.5,0.8c0,0.4,0.1,0.8,0.1,1.2
		c-8,0-16.1,0.1-24.1,0.1l0.1-37.9l24,0.1V43l-20.7-0.1v14.3l18.2,0.1V60z"/>
	<linearGradient id="SVGID_9_" gradientUnits="userSpaceOnUse" x1="284.55" y1="77.85" x2="284.55" y2="39.85">
		<stop  offset="0" style="stop-color:#624C9F"/>
		<stop  offset="0.6513" style="stop-color:#5F6DB4"/>
		<stop  offset="1" style="stop-color:#5D80C0"/>
	</linearGradient>
	<path class="st8" d="M285.3,77.9c-0.5,0-0.9,0-1.4,0c-0.3-12.7-0.6-25.3-0.9-38h3.2C285.9,52.6,285.5,65.3,285.3,77.9z"/>
	<linearGradient id="SVGID_10_" gradientUnits="userSpaceOnUse" x1="264.25" y1="78.35" x2="264.25" y2="40.35">
		<stop  offset="0" style="stop-color:#624C9F"/>
		<stop  offset="0.6513" style="stop-color:#5F6DB4"/>
		<stop  offset="1" style="stop-color:#5D80C0"/>
	</linearGradient>
	<path class="st9" d="M254.5,62.9c-0.4,5.1-0.8,10.3-1.2,15.4c-0.3,0-0.7,0-1,0.1c-0.3-12.7-0.6-25.3-0.9-38h13c4,0,7.1,1,9.4,3.1
		c2.3,2,3.4,4.8,3.4,8.3c0,3.6-1.1,6.3-3.3,8.3c-2.2,1.9-5.4,2.9-9.6,2.9L254.5,62.9z M254.5,60.2h9.7c3.1,0,5.5-0.7,7.1-2.2
		s2.5-3.5,2.5-6.2c0-2.6-0.8-4.7-2.4-6.3s-3.9-2.4-6.9-2.4h-9.9L254.5,60.2z"/>
	<linearGradient id="SVGID_11_" gradientUnits="userSpaceOnUse" x1="233.55" y1="78.35" x2="233.55" y2="40.35">
		<stop  offset="0" style="stop-color:#624C9F"/>
		<stop  offset="0.6513" style="stop-color:#5F6DB4"/>
		<stop  offset="1" style="stop-color:#5D80C0"/>
	</linearGradient>
	<path class="st10" d="M223.8,62.9c-0.4,5.1-0.8,10.3-1.2,15.4c-0.3,0-0.7,0-1,0.1c-0.3-12.7-0.6-25.3-0.9-38h13c4,0,7.1,1,9.4,3.1
		c2.3,2,3.4,4.8,3.4,8.3c0,3.6-1.1,6.3-3.3,8.3c-2.2,1.9-5.4,2.9-9.6,2.9L223.8,62.9z M223.8,60.2h9.7c3.1,0,5.5-0.7,7.1-2.2
		s2.5-3.5,2.5-6.2c0-2.6-0.8-4.7-2.4-6.3c-1.6-1.6-3.9-2.4-6.9-2.4h-9.9L223.8,60.2z"/>
	<linearGradient id="SVGID_12_" gradientUnits="userSpaceOnUse" x1="429.15" y1="78.15" x2="429.15" y2="40.15">
		<stop  offset="0" style="stop-color:#624C9F"/>
		<stop  offset="0.6513" style="stop-color:#5F6DB4"/>
		<stop  offset="1" style="stop-color:#5D80C0"/>
	</linearGradient>
	<path class="st11" d="M429.9,78.2c-0.5,0-0.9,0-1.4,0c-0.3-12.7-0.6-25.3-0.9-38h3.2C430.4,52.9,430.1,65.6,429.9,78.2z"/>
	<linearGradient id="SVGID_13_" gradientUnits="userSpaceOnUse" x1="450.85" y1="78.35" x2="450.85" y2="40.35">
		<stop  offset="0" style="stop-color:#624C9F"/>
		<stop  offset="0.6513" style="stop-color:#5F6DB4"/>
		<stop  offset="1" style="stop-color:#5D80C0"/>
	</linearGradient>
	<path class="st12" d="M465.4,43.1h-13c-0.4,11.8-0.8,23.5-1.2,35.3c-0.4,0-0.9,0-1.3,0c-0.2-11.8-0.5-23.5-0.7-35.3h-13v-2.7
		l29.2,0.1V43.1z"/>
	<linearGradient id="SVGID_14_" gradientUnits="userSpaceOnUse" x1="486.05" y1="78.35" x2="486.05" y2="40.25">
		<stop  offset="0" style="stop-color:#624C9F"/>
		<stop  offset="0.6513" style="stop-color:#5F6DB4"/>
		<stop  offset="1" style="stop-color:#5D80C0"/>
	</linearGradient>
	<path class="st13" d="M485.9,61.2l11.7-20.7h3.7l-13.8,23.6c-0.3,4.8-0.5,9.5-0.8,14.3c-0.5,0-1,0-1.4,0c-0.3-4.8-0.6-9.6-1-14.3
		l-13.6-23.8h3.8L485.9,61.2z"/>
	<linearGradient id="SVGID_15_" gradientUnits="userSpaceOnUse" x1="307.55" y1="78.35" x2="307.55" y2="40.35">
		<stop  offset="0" style="stop-color:#624C9F"/>
		<stop  offset="0.6513" style="stop-color:#5F6DB4"/>
		<stop  offset="1" style="stop-color:#5D80C0"/>
	</linearGradient>
	<path class="st14" d="M322.1,43.1h-13c-0.4,11.8-0.8,23.5-1.2,35.3c-0.4,0-0.9,0-1.3,0c-0.2-11.8-0.5-23.5-0.7-35.3h-13v-2.7
		l29.2,0.1V43.1z"/>
</g>
</svg>
