<?xml version="1.0" encoding="utf-8"?>
<!-- Generator: Adobe Illustrator 24.0.0, SVG Export Plug-In . SVG Version: 6.00 Build 0)  -->
<svg version="1.1" id="Layer_1" xmlns="http://www.w3.org/2000/svg" xmlns:xlink="http://www.w3.org/1999/xlink" x="0px" y="0px"
	 viewBox="0 0 1847.5 845.6" style="enable-background:new 0 0 1847.5 845.6;" xml:space="preserve">
<style type="text/css">
	.st0{fill:#000;}
</style>
<g>
	<path class="st0" d="M11,814.2c0.9,0.7,1.8,1.3,2.7,2c2.4-1.5,5.2-2.7,7.3-4.5c44.6-38.1,89.6-75.9,133.5-114.6
		c96.8-85.4,193.2-171.3,289.6-257.1c29.3-26.1,58.3-52.5,87.5-78.8c12.6-11.3,17.3-10.6,23.9,4c23.3,51.2,46.7,102.4,69.8,153.7
		C672,622,718.4,725.2,765.1,828.3c1.2,2.5,4.2,6.3,6.1,6.2c2.9-0.2,6.3-2.8,8.3-5.2c9.3-11.4,18.1-23.2,27.1-34.8
		c20.4-26.4,40.6-52.8,61.1-79.1c10.6-13.6,11.7-27.1,4.2-42.6c-13.4-27.6-25.9-55.6-37.7-83.8c-32.1-76.9-63.3-154.1-95.4-231.1
		c-34-81.6-68.4-163-102.7-244.4c-7.9-18.7-15.9-37.4-24-56c-3.8-8.7-7.5-9.1-14.2-1.7c-3.5,3.8-6.8,7.8-10,11.8
		c-70,89.9-139.8,179.9-210,269.7c-41.2,52.7-83.5,104.7-124.6,157.5c-56.1,72.1-111.6,144.7-167.3,217.1
		c-21.5,27.9-43,55.9-64.3,84C17.6,801.7,14.6,808.2,11,814.2z M1838.3,295.6c-1-0.7-1.9-1.4-2.9-2.1c-1.9,1.4-3.8,2.8-5.5,4.3
		c-98.3,85.5-196.5,171.1-294.8,256.6c-14.8,12.9-17.4,12.2-24.5-4.8c-30.6-73.1-61.4-146.2-92.1-219.3
		c-26.9-64.1-53.8-128.2-80.8-192.2c-16.6-39.4-33.2-78.8-50-118.2c-4.1-9.6-8.3-12.1-19.6-12c-54.6,0.1-109.3,0.2-163.9,0.3
		c-17.2,0.1-18.8,2.2-13.4,16.4c0.6,1.6,1.2,3.1,1.8,4.7c32.4,75.5,64.9,151.1,97.3,226.6c24.9,58,49.2,116.1,74.5,174
		c19.3,44,40.4,87.4,59.3,131.6c22.6,52.5,43.6,105.5,65.6,158.1c14.8,35.5,29.8,70.9,45,106.2c1.5,3.5,4.8,6.3,8.2,10.6
		C1575.2,655.1,1706.8,475.3,1838.3,295.6z M1056,836.6c2.7-3.3,4.5-5.3,6-7.4c22.3-30,44.8-59.9,66.9-90.1
		c36.4-49.9,72.5-100,108.9-150c5.2-7.1,6.3-14.3,2.2-22c-1.3-2.6-2.5-5.2-3.6-7.8c-6.6-15.4-13.1-30.8-19.6-46.2
		c-4-9.5-7.5-10.3-15.6-3.4c-5.7,4.9-11.3,9.9-17,14.8c-13.9,11.9-27.7,23.9-41.8,35.6c-6.5,5.4-9.7,4.6-13.7-2.6
		c-0.7-1.3-1.3-2.6-1.9-3.9c-24.9-59.7-49.6-119.5-74.8-179.2C1002.4,256.3,952.5,138.2,902.6,20c-4.1-9.6-7.5-11.9-18.7-11.9
		C828,8.1,772,8.2,716,8.3c-11.7,0-14,3.2-9.6,13.1c13,30.1,26.2,60.1,39.1,90.2c45.3,105.9,90.7,211.8,135.7,317.8
		c37.3,88,74,176.2,111.3,264.2c18.8,44.4,38.2,88.7,57.5,133C1051.3,829.7,1053.5,832.5,1056,836.6z"/>
</g>
</svg>
