<?xml version="1.0" encoding="utf-8"?>
<!-- Generator: Adobe Illustrator 24.0.0, SVG Export Plug-In . SVG Version: 6.00 Build 0)  -->
<svg version="1.1" id="Layer_1" xmlns="http://www.w3.org/2000/svg" xmlns:xlink="http://www.w3.org/1999/xlink" x="0px" y="0px"
	 viewBox="0 0 508.7 117.7" style="enable-background:new 0 0 508.7 117.7;" xml:space="preserve">
<style type="text/css">
	.st0{fill:#FFFFFF;}
</style>
<g>
	<path class="st0" d="M207.5,65.8c-6.1,0-12.3,0-18.4,0.1c-1.9,3.8-3.8,7.7-5.6,11.5c-0.3,0-0.5,0-0.8,0c4.7-12.8,9.3-25.7,14-38.5
		h3.4c4.8,12.8,9.6,25.6,14.4,38.5c-0.3,0-0.6,0-1,0c-1.1-1.8-2.1-3.8-3.2-5.8C209.4,69.6,208.4,67.7,207.5,65.8z M189.9,63.8h16.9
		l-8.5-21L189.9,63.8z"/>
</g>
<path class="st0" d="M353.1,39.1L353,64.9c0,2.6-0.6,4.8-1.8,6.7c-1.1,1.9-2.8,3.3-4.8,4.3c-2.1,1-4.5,1.5-7.1,1.5
	c-4.1,0-7.4-1.1-9.8-3.3c-2.5-2.2-3.7-5.2-3.8-9.1l0.1-26.1l3.3,0l-0.1,25.6c0,1,0.2,4.4,2.8,7.4c0.6,0.7,3.4,3.9,7.7,3.8
	c4.2-0.1,6.8-3,7.5-3.8c2.6-3,2.8-6.4,2.8-7.4l0.1-25.7L353.1,39.1z"/>
<path class="st0" d="M388.3,77.1c-0.6,0-1.3,0-1.9,0c-7.9-10.8-15.7-21.7-23.6-32.5c-0.3,10.8-0.7,21.6-1.1,32.4c-0.5,0-0.9,0-1.4,0
	c-0.3-12.6-0.6-25.3-0.9-37.9l3.3,0L385,71.6l0.1-32.5l3.3,0L388.3,77.1z"/>
<path class="st0" d="M417.4,58.9l-18.2-0.1c0,5.4,0.1,10.7,0.1,16.1c6.8,0.3,13.7,0.5,20.5,0.8c0,0.4,0.1,0.8,0.1,1.2
	c-8,0-16.1,0.1-24.1,0.1l0.1-37.9l24,0.1l0,2.7l-20.7-0.1l0,14.3l18.2,0.1L417.4,58.9z"/>
<path class="st0" d="M284.6,76.8c-0.5,0-0.9,0-1.4,0c-0.3-12.7-0.6-25.3-0.9-38l3.2,0C285.2,51.5,284.9,64.2,284.6,76.8z"/>
<path class="st0" d="M253.8,61.8c-0.4,5.1-0.8,10.3-1.2,15.4c-0.3,0-0.7,0-1,0.1c-0.3-12.7-0.6-25.3-0.9-38l13,0c4,0,7.1,1,9.4,3.1
	c2.3,2,3.4,4.8,3.4,8.3c0,3.6-1.1,6.3-3.3,8.3c-2.2,1.9-5.4,2.9-9.6,2.9L253.8,61.8z M253.8,59.1l9.7,0c3.1,0,5.5-0.7,7.1-2.2
	c1.6-1.5,2.5-3.5,2.5-6.2c0-2.6-0.8-4.7-2.4-6.3c-1.6-1.6-3.9-2.4-6.9-2.4l-9.9,0L253.8,59.1z"/>
<path class="st0" d="M223.1,61.8c-0.4,5.1-0.8,10.3-1.2,15.4c-0.3,0-0.7,0-1,0.1c-0.3-12.7-0.6-25.3-0.9-38l13,0c4,0,7.1,1,9.4,3.1
	c2.3,2,3.4,4.8,3.4,8.3c0,3.6-1.1,6.3-3.3,8.3c-2.2,1.9-5.4,2.9-9.6,2.9L223.1,61.8z M223.1,59.1l9.7,0c3.1,0,5.5-0.7,7.1-2.2
	c1.6-1.5,2.5-3.5,2.5-6.2c0-2.6-0.8-4.7-2.4-6.3c-1.6-1.6-3.9-2.4-6.9-2.4l-9.9,0L223.1,59.1z"/>
<path class="st0" d="M429.2,77.1c-0.5,0-0.9,0-1.4,0c-0.3-12.7-0.6-25.3-0.9-38l3.2,0C429.8,51.8,429.5,64.5,429.2,77.1z"/>
<path class="st0" d="M464.8,42l-13,0c-0.4,11.8-0.8,23.5-1.2,35.3c-0.4,0-0.9,0-1.3,0c-0.2-11.8-0.5-23.5-0.7-35.3l-13,0l0-2.7
	l29.2,0.1L464.8,42z"/>
<path class="st0" d="M485.3,60.1L497,39.4l3.7,0L486.9,63c-0.3,4.8-0.5,9.5-0.8,14.3c-0.5,0-1,0-1.4,0c-0.3-4.8-0.6-9.6-1-14.3
	l-13.6-23.8l3.8,0L485.3,60.1z"/>
<path class="st0" d="M321.5,42l-13,0c-0.4,11.8-0.8,23.5-1.2,35.3c-0.4,0-0.9,0-1.3,0c-0.2-11.8-0.5-23.5-0.7-35.3l-13,0l0-2.7
	l29.2,0.1L321.5,42z"/>
<g>
	<polygon class="st0" points="163.1,109.1 163.1,58.1 161.7,58.1 	"/>
	<polygon class="st0" points="163.1,6.5 163.1,58.1 161.7,58.1 	"/>
	<polygon class="st0" points="163.1,108.9 163.1,58.1 164.6,58.1 	"/>
	<polygon class="st0" points="163.1,7.7 163.1,58.1 164.6,58.1 	"/>
</g>
<g>
	<path class="st0" d="M7.7,89.8c0.1,0.1,0.1,0.1,0.2,0.2c0.2-0.1,0.4-0.2,0.6-0.4c3.5-3,7.1-6,10.5-9c7.6-6.7,15.2-13.5,22.8-20.3
		c2.3-2.1,4.6-4.1,6.9-6.2c1-0.9,1.4-0.8,1.9,0.3c1.8,4,3.7,8.1,5.5,12.1c3.7,8.1,7.3,16.3,11,24.4c0.1,0.2,0.3,0.5,0.5,0.5
		c0.2,0,0.5-0.2,0.7-0.4c0.7-0.9,1.4-1.8,2.1-2.7c1.6-2.1,3.2-4.2,4.8-6.2c0.8-1.1,0.9-2.1,0.3-3.4c-1.1-2.2-2-4.4-3-6.6
		c-2.5-6.1-5-12.2-7.5-18.2c-2.7-6.4-5.4-12.9-8.1-19.3c-0.6-1.5-1.3-2.9-1.9-4.4c-0.3-0.7-0.6-0.7-1.1-0.1
		c-0.3,0.3-0.5,0.6-0.8,0.9c-5.5,7.1-11,14.2-16.6,21.3c-3.3,4.2-6.6,8.3-9.8,12.4c-4.4,5.7-8.8,11.4-13.2,17.1
		c-1.7,2.2-3.4,4.4-5.1,6.6C8.2,88.8,8,89.4,7.7,89.8z M151.9,48.9c-0.1-0.1-0.2-0.1-0.2-0.2c-0.1,0.1-0.3,0.2-0.4,0.3
		c-7.8,6.7-15.5,13.5-23.3,20.2c-1.2,1-1.4,1-1.9-0.4c-2.4-5.8-4.8-11.5-7.3-17.3c-2.1-5.1-4.2-10.1-6.4-15.2
		c-1.3-3.1-2.6-6.2-3.9-9.3c-0.3-0.8-0.7-1-1.5-1c-4.3,0-8.6,0-12.9,0c-1.4,0-1.5,0.2-1.1,1.3c0,0.1,0.1,0.2,0.1,0.4
		c2.6,6,5.1,11.9,7.7,17.9c2,4.6,3.9,9.2,5.9,13.7c1.5,3.5,3.2,6.9,4.7,10.4c1.8,4.1,3.4,8.3,5.2,12.5c1.2,2.8,2.4,5.6,3.6,8.4
		c0.1,0.3,0.4,0.5,0.6,0.8C131.1,77.3,141.5,63.1,151.9,48.9z M90.2,91.6c0.2-0.3,0.4-0.4,0.5-0.6c1.8-2.4,3.5-4.7,5.3-7.1
		c2.9-3.9,5.7-7.9,8.6-11.8c0.4-0.6,0.5-1.1,0.2-1.7c-0.1-0.2-0.2-0.4-0.3-0.6c-0.5-1.2-1-2.4-1.5-3.6c-0.3-0.7-0.6-0.8-1.2-0.3
		c-0.5,0.4-0.9,0.8-1.3,1.2c-1.1,0.9-2.2,1.9-3.3,2.8c-0.5,0.4-0.8,0.4-1.1-0.2c-0.1-0.1-0.1-0.2-0.1-0.3c-2-4.7-3.9-9.4-5.9-14.1
		c-3.9-9.3-7.9-18.7-11.8-28c-0.3-0.8-0.6-0.9-1.5-0.9c-4.4,0-8.8,0-13.2,0c-0.9,0-1.1,0.2-0.8,1c1,2.4,2.1,4.7,3.1,7.1
		c3.6,8.4,7.2,16.7,10.7,25.1c2.9,6.9,5.8,13.9,8.8,20.8c1.5,3.5,3,7,4.5,10.5C89.8,91,90,91.3,90.2,91.6z"/>
</g>
</svg>
