<svg width="124" height="68" viewBox="0 0 124 68" fill="none" xmlns="http://www.w3.org/2000/svg">
<path d="M23.4095 46.5198H25.1238L29.1546 56.3652H29.2936L33.3244 46.5198H35.0386V58.3806H33.695V49.3691H33.5792L29.8727 58.3806H28.5754L24.8689 49.3691H24.7531V58.3806H23.4095V46.5198Z" fill="#878787"/>
<path d="M36.8991 46.5198H38.5439L41.8334 52.0564H41.9724L45.2619 46.5198H46.9067L42.621 53.4926V58.3806H41.1847V53.4926L36.8991 46.5198Z" fill="#878787"/>
<path d="M59.8374 49.485C59.7679 48.8981 59.4861 48.4425 58.9919 48.1182C58.4977 47.7939 57.8915 47.6317 57.1734 47.6317C56.6483 47.6317 56.1888 47.7167 55.795 47.8865C55.405 48.0564 55.1 48.29 54.88 48.5873C54.6637 48.8846 54.5556 49.2224 54.5556 49.6008C54.5556 49.9174 54.6309 50.1896 54.7815 50.4174C54.9359 50.6413 55.1329 50.8286 55.3722 50.9792C55.6116 51.1259 55.8626 51.2475 56.1251 51.344C56.3877 51.4367 56.629 51.512 56.849 51.5699L58.0536 51.8942C58.3625 51.9753 58.7061 52.0872 59.0845 52.2301C59.4668 52.373 59.8316 52.5679 60.1791 52.815C60.5304 53.0583 60.82 53.371 61.0478 53.7532C61.2756 54.1355 61.3895 54.6046 61.3895 55.1605C61.3895 55.8015 61.2215 56.3806 60.8856 56.898C60.5536 57.4153 60.0671 57.8265 59.4262 58.1315C58.7892 58.4365 58.015 58.5891 57.1039 58.5891C56.2545 58.5891 55.5189 58.452 54.8973 58.1779C54.2796 57.9037 53.7931 57.5215 53.4379 57.0312C53.0866 56.5408 52.8877 55.9713 52.8414 55.3227H54.324C54.3626 55.7706 54.5132 56.1412 54.7757 56.4347C55.0421 56.7242 55.378 56.9404 55.7834 57.0833C56.1927 57.2223 56.6328 57.2918 57.1039 57.2918C57.6521 57.2918 58.1444 57.203 58.5807 57.0254C59.0169 56.8439 59.3625 56.5929 59.6173 56.2725C59.8722 55.9482 59.9996 55.5698 59.9996 55.1374C59.9996 54.7436 59.8895 54.4231 59.6694 54.176C59.4494 53.9289 59.1598 53.7281 58.8007 53.5737C58.4417 53.4193 58.0536 53.2841 57.6367 53.1683L56.1772 52.7513C55.2506 52.4849 54.517 52.1046 53.9765 51.6104C53.436 51.1162 53.1657 50.4695 53.1657 49.6703C53.1657 49.0062 53.3452 48.4271 53.7043 47.9329C54.0672 47.4348 54.5537 47.0487 55.1637 46.7746C55.7776 46.4966 56.4629 46.3576 57.2197 46.3576C57.9841 46.3576 58.6637 46.4947 59.2583 46.7688C59.8528 47.0391 60.3239 47.4097 60.6714 47.8808C61.0227 48.3518 61.208 48.8865 61.2273 49.485H59.8374Z" fill="#878787"/>
<path d="M63.7509 46.5198H65.4652L69.496 56.3652H69.635L73.6658 46.5198H75.3801V58.3806H74.0365V49.3691H73.9206L70.2141 58.3806H68.9169L65.2104 49.3691H65.0945V58.3806H63.7509V46.5198Z" fill="#878787"/>
<path d="M78.7463 58.3806H77.2406L81.5957 46.5198H83.0783L87.4334 58.3806H85.9277L82.3833 48.3962H82.2907L78.7463 58.3806ZM79.3023 53.7474H85.3717V55.0216H79.3023V53.7474Z" fill="#878787"/>
<path d="M89.2809 58.3806V46.5198H93.2885C94.2151 46.5198 94.9758 46.6781 95.5703 46.9947C96.1649 47.3074 96.6051 47.7379 96.8908 48.2862C97.1765 48.8344 97.3193 49.4579 97.3193 50.1568C97.3193 50.8556 97.1765 51.4753 96.8908 52.0158C96.6051 52.5563 96.1669 52.981 95.5761 53.2899C94.9854 53.5949 94.2306 53.7474 93.3117 53.7474H90.0685V52.4502H93.2654C93.8986 52.4502 94.4082 52.3575 94.7943 52.1722C95.1842 51.9869 95.4661 51.7243 95.6398 51.3846C95.8174 51.0409 95.9062 50.6317 95.9062 50.1568C95.9062 49.6819 95.8174 49.2668 95.6398 48.9116C95.4622 48.5564 95.1785 48.2823 94.7885 48.0892C94.3985 47.8923 93.8831 47.7939 93.2422 47.7939H90.7171V58.3806H89.2809ZM94.8638 53.0525L97.7827 58.3806H96.1147L93.2422 53.0525H94.8638Z" fill="#878787"/>
<path d="M99.064 47.7939V46.5198H107.96V47.7939H104.23V58.3806H102.794V47.7939H99.064Z" fill="#878787"/>
<path d="M47.2743 67.9416V63.6664H47.792V65.5702H50.0715V63.6664H50.5892V67.9416H50.0715V66.0294H47.792V67.9416H47.2743Z" fill="#878787"/>
<path d="M55.2328 65.804C55.2328 66.2549 55.1514 66.6445 54.9886 66.973C54.8258 67.3014 54.6024 67.5547 54.3185 67.7328C54.0346 67.9109 53.7104 68 53.3458 68C52.9811 68 52.6569 67.9109 52.373 67.7328C52.0891 67.5547 51.8657 67.3014 51.7029 66.973C51.5401 66.6445 51.4587 66.2549 51.4587 65.804C51.4587 65.3531 51.5401 64.9634 51.7029 64.635C51.8657 64.3065 52.0891 64.0533 52.373 63.8751C52.6569 63.697 52.9811 63.6079 53.3458 63.6079C53.7104 63.6079 54.0346 63.697 54.3185 63.8751C54.6024 64.0533 54.8258 64.3065 54.9886 64.635C55.1514 64.9634 55.2328 65.3531 55.2328 65.804ZM54.7318 65.804C54.7318 65.4338 54.6699 65.1214 54.5461 64.8667C54.4236 64.612 54.2573 64.4193 54.0471 64.2885C53.8384 64.1576 53.6046 64.0922 53.3458 64.0922C53.0869 64.0922 52.8524 64.1576 52.6423 64.2885C52.4335 64.4193 52.2672 64.612 52.1434 64.8667C52.0209 65.1214 51.9597 65.4338 51.9597 65.804C51.9597 66.1741 52.0209 66.4866 52.1434 66.7412C52.2672 66.9959 52.4335 67.1887 52.6423 67.3195C52.8524 67.4503 53.0869 67.5157 53.3458 67.5157C53.6046 67.5157 53.8384 67.4503 54.0471 67.3195C54.2573 67.1887 54.4236 66.9959 54.5461 66.7412C54.6699 66.4866 54.7318 66.1741 54.7318 65.804Z" fill="#878787"/>
<path d="M56.1033 63.6664H56.7212L58.1741 67.2151H58.2242L59.6771 63.6664H60.295V67.9416H59.8107V64.6934H59.769L58.433 67.9416H57.9654L56.6294 64.6934H56.5876V67.9416H56.1033V63.6664Z" fill="#878787"/>
<path d="M61.333 67.9416V63.6664H63.9131V64.1256H61.8507V65.5702H63.7795V66.0294H61.8507V67.4823H63.9465V67.9416H61.333Z" fill="#878787"/>
<path fill-rule="evenodd" clip-rule="evenodd" d="M62.9588 0L62.9127 0.046073L62.8666 0L62.6823 0.230365L45.1976 15.135L45.6123 14.9968L62.9127 2.32669L80.167 14.9968L80.5587 15.135L63.1431 0.230365L62.9588 0Z" fill="#878787"/>
<path d="M65.2394 10.8272H62.6363V14.0292H65.2394V10.8272Z" fill="#878787"/>
<path d="M65.2394 14.6512H62.6363V17.1392H65.2394V14.6512Z" fill="#878787"/>
<path d="M61.8991 10.8272H59.6646V14.0292H61.8991V10.8272Z" fill="#878787"/>
<path d="M61.8991 14.6512H59.6646V17.1392H61.8991V14.6512Z" fill="#878787"/>
<path fill-rule="evenodd" clip-rule="evenodd" d="M37.0427 36.1212L0 36.7432V36.7663H37.0427V36.1212Z" fill="#878787"/>
<path fill-rule="evenodd" clip-rule="evenodd" d="M86.479 36.1212V36.7663H123.545V36.7432L86.479 36.1212Z" fill="#878787"/>
<path fill-rule="evenodd" clip-rule="evenodd" d="M4.1005 66.7598H39.0699V65.654L4.1005 66.7368V66.7598Z" fill="#878787"/>
<path fill-rule="evenodd" clip-rule="evenodd" d="M86.3178 67.1284H121.264V67.1053L86.3178 66.0226V67.1284Z" fill="#878787"/>
<path d="M87.0089 25.5936C86.479 24.3957 85.6958 22.6219 83.8529 20.9402C83.1848 20.3182 81.3189 18.6826 78.3702 18.0837C74.6844 17.3465 71.6896 18.8208 70.5148 19.3967C68.6258 20.3412 67.1745 21.6082 65.4697 23.1056C64.4561 24.004 63.6729 24.7873 63.12 25.3632C63.0048 25.5245 62.8897 25.7087 62.7745 25.87C62.2216 25.248 61.4384 24.3726 60.4248 23.3821C59.2269 22.1842 58.5588 21.5161 57.5913 20.802C56.9002 20.2721 55.5871 19.2816 53.6981 18.5674C52.5924 18.1297 50.7034 17.4156 48.2384 17.6229C45.1055 17.8994 42.9861 19.558 42.3641 20.0648C38.9317 22.8292 38.2636 26.7454 38.0333 28.0585C37.8259 29.2103 37.3883 32.0668 38.7013 35.338C39.1851 36.5359 40.3139 39.3464 43.3317 41.0511C43.7694 41.2814 45.1746 42.0416 47.1327 42.249C44.6217 42.0647 42.8249 40.9128 42.1107 40.406C37.7799 37.3191 37.5956 31.8825 37.5956 31.6061C37.5956 31.5831 37.5956 31.3527 37.5725 31.3527C37.5495 31.3527 37.4804 31.6752 37.4574 31.7904C37.0888 33.6103 38.3097 36.2364 38.3097 36.2364C38.8626 37.4113 39.6689 39.1851 41.5579 40.8207C42.249 41.4196 44.1379 43.0552 47.0866 43.5851C50.7955 44.2531 53.7442 42.7327 54.919 42.1338C56.808 41.1662 58.2133 39.8762 59.8949 38.3327C60.8855 37.4343 61.6687 36.605 62.1986 36.0291C62.3138 35.8678 62.4289 35.6836 62.5441 35.5223C63.097 36.1212 63.9033 36.9736 64.9399 37.9642C66.1609 39.139 66.8289 39.784 67.7964 40.4982C68.4875 41.005 69.8237 41.9725 71.7126 42.6636C72.8184 43.0783 74.7304 43.7694 77.1723 43.516C80.3053 43.1935 82.3785 41.4888 83.0005 40.9589C86.3869 38.1254 86.9859 34.2092 87.1932 32.8961C87.3775 31.7443 87.7691 28.8647 86.3869 25.6396C86.1335 25.0637 85.7419 24.0962 85.0278 23.0595C87.5387 26.1464 87.5848 29.9705 87.5848 30.2009C87.5848 30.2239 87.5618 30.4543 87.5848 30.4543C87.6078 30.4543 87.6769 30.1318 87.723 30.0166C88.1838 28.2428 87.0089 25.5936 87.0089 25.5936ZM50.8185 37.0657C49.874 37.4804 49.0678 37.6417 48.2615 37.6186C45.8657 37.5956 44.184 36.0291 43.7233 35.5453C41.8113 33.6333 41.5809 31.1223 41.65 29.671C41.673 29.5789 41.7191 29.4176 41.7652 29.1873C41.9264 28.6113 42.0647 28.1736 42.0877 28.1045C42.6406 26.4459 43.7694 25.3402 43.7694 25.3402C45.5201 23.6124 47.8929 23.5894 48.2615 23.5894C49.7589 23.5894 50.8185 24.1192 51.9473 24.6721C53.2834 25.3402 54.1588 26.0773 55.0112 26.7915C56.3012 27.8972 57.1766 29.003 57.7295 29.6941C58.0981 30.1548 58.3975 30.5694 58.6279 30.892C56.7389 32.9192 53.6751 35.8678 50.8185 37.0657ZM83.5304 32.5506C83.4382 33.0344 82.8162 36.1212 79.9136 37.9181C77.633 39.3233 75.3524 39.0699 74.7304 39.0008C73.1179 38.7935 71.966 38.1485 70.5839 37.3652C69.386 36.6741 68.5336 35.983 67.3127 35.0155C66.2069 34.1171 65.3085 33.3108 64.6865 32.7118C65.5849 31.6061 70.3305 25.9391 74.3158 24.1653C75.2603 23.7506 76.0665 23.5663 76.8728 23.5663C79.2686 23.5663 80.9733 25.0868 81.4571 25.5475C84.2445 28.2658 83.5765 32.2511 83.5304 32.5506Z" fill="#878787"/>
</svg>
