<svg width="19" height="17" viewBox="0 0 19 17" fill="none" xmlns="http://www.w3.org/2000/svg">
<path d="M1.59375 0.983791C1.9629 0.940761 2.32546 1.10599 2.53516 1.41282C4.01054 3.57163 5.78262 4.46969 7.7489 4.67401C7.8454 3.83282 8.0724 3.00167 8.4991 2.26991C9.125 1.19626 10.143 0.405821 11.5972 0.113741C13.6066 -0.289859 15.1366 0.437841 16.0244 1.32905L17.8162 0.994091C18.199 0.922551 18.5884 1.07965 18.8144 1.39673C19.0403 1.71381 19.0617 2.13321 18.8691 2.47162L17.1496 5.4937C17.3064 9.8551 16.0944 12.8988 13.5103 14.9958C12.1395 16.1081 10.178 16.739 8.0249 16.9338C5.85497 17.1301 3.40214 16.8927 0.963824 16.1807C0.536044 16.0558 0.242544 15.6629 0.244124 15.2173C0.245694 14.7716 0.541954 14.3808 0.970604 14.2589C2.19682 13.9102 3.13012 13.6087 3.97377 13.0822C2.77531 12.4459 1.89225 11.6141 1.26726 10.6658C0.398594 9.3477 0.076484 7.8783 0.012534 6.553C-0.051406 5.22784 0.140094 4.00048 0.341784 3.11465C0.456594 2.61039 0.590694 2.10378 0.775534 1.61983C0.909784 1.27103 1.22461 1.02683 1.59375 0.983791Z" fill="white"/>
</svg>
